<svg id="television_1_" data-name="television (1)" xmlns="http://www.w3.org/2000/svg" xmlns:xlink="http://www.w3.org/1999/xlink" width="42.559" height="47.246" viewBox="0 0 42.559 47.246">
  <defs>
    <linearGradient id="linear-gradient" x1="0.5" x2="1.493" y2="0.5" gradientUnits="objectBoundingBox">
      <stop offset="0" stop-color="#ffb369"/>
      <stop offset="1" stop-color="#ff3c7f"/>
    </linearGradient>
  </defs>
  <g id="Group_28" data-name="Group 28" transform="translate(0 0)">
    <path id="Path_67" data-name="Path 67" d="M73.222,11.069H58.171L64.16,2.21A1.482,1.482,0,0,0,63.911.272a1.166,1.166,0,0,0-1.744.277l-6.616,9.8L49.082,3.169a1.155,1.155,0,0,0-1.763,0,1.488,1.488,0,0,0,0,1.956l5.352,5.943H38.137A3.962,3.962,0,0,0,34.4,15.221V37.553a3.969,3.969,0,0,0,3.737,4.153h5.546l-1.6,3.534a1.465,1.465,0,0,0,.554,1.855,1.189,1.189,0,0,0,1.67-.618l2.15-4.771h18.5l2.15,4.771a1.191,1.191,0,0,0,1.67.618,1.446,1.446,0,0,0,.554-1.855l-1.578-3.534h5.463a3.962,3.962,0,0,0,3.737-4.153V15.221a3.956,3.956,0,0,0-3.737-4.153Zm1.246,26.484a1.323,1.323,0,0,1-1.246,1.384H38.137a1.317,1.317,0,0,1-1.246-1.384V15.221a1.323,1.323,0,0,1,1.246-1.384H73.231a1.317,1.317,0,0,1,1.246,1.384V37.553Z" transform="translate(-34.4 0.005)" fill="url(#linear-gradient)"/>
  </g>
</svg>
