<svg xmlns="http://www.w3.org/2000/svg" width="29.146" height="24.479" viewBox="0 0 29.146 24.479">
  <g id="love" transform="translate(-2 -40.992)">
    <g id="Group_17" data-name="Group 17" transform="translate(2 40.993)">
      <path id="Path_34" data-name="Path 34" d="M26.731,43.255a8.439,8.439,0,0,0-11.5,0l-.659.626-.659-.626a8.44,8.44,0,0,0-11.5,0,7.542,7.542,0,0,0,0,11.061L13.869,65.19a1.022,1.022,0,0,0,1.408,0L26.731,54.316a7.541,7.541,0,0,0,0-11.061Zm-1.409,9.578L14.573,63.038,3.824,52.833a5.5,5.5,0,0,1,0-8.1,6.369,6.369,0,0,1,8.681,0l1.364,1.3a1.022,1.022,0,0,0,1.409,0l1.364-1.3a6.37,6.37,0,0,1,8.681,0,5.5,5.5,0,0,1,0,8.1Z" transform="translate(0 -40.993)" fill="#fff"/>
    </g>
  </g>
</svg>
