<svg xmlns="http://www.w3.org/2000/svg" width="15.44" height="20.587" viewBox="0 0 15.44 20.587">
  <g id="padlock" transform="translate(-3)">
    <path id="Path_54" data-name="Path 54" d="M16.51,21.867H4.93A1.932,1.932,0,0,1,3,19.937V10.93A1.932,1.932,0,0,1,4.93,9H16.51a1.932,1.932,0,0,1,1.93,1.93v9.007A1.932,1.932,0,0,1,16.51,21.867ZM4.93,10.287a.644.644,0,0,0-.643.643v9.007a.644.644,0,0,0,.643.643H16.51a.644.644,0,0,0,.643-.643V10.93a.644.644,0,0,0-.643-.643Z" transform="translate(0 -1.28)" fill="#191a1e"/>
    <path id="Path_55" data-name="Path 55" d="M15.65,9.007a.644.644,0,0,1-.643-.643V5.147a3.86,3.86,0,0,0-7.72,0V8.363A.643.643,0,0,1,6,8.363V5.147a5.147,5.147,0,0,1,10.293,0V8.363A.644.644,0,0,1,15.65,9.007Z" transform="translate(-0.427)" fill="#191a1e"/>
    <path id="Path_56" data-name="Path 56" d="M11.716,16.431a1.716,1.716,0,1,1,1.716-1.716A1.717,1.717,0,0,1,11.716,16.431Zm0-2.144a.429.429,0,1,0,.429.429A.43.43,0,0,0,11.716,14.287Z" transform="translate(-0.995 -1.849)" fill="#191a1e"/>
    <path id="Path_57" data-name="Path 57" d="M11.893,19.4a.644.644,0,0,1-.643-.643V16.393a.643.643,0,0,1,1.287,0v2.359A.644.644,0,0,1,11.893,19.4Z" transform="translate(-1.173 -2.24)" fill="#191a1e"/>
  </g>
</svg>
