<svg xmlns="http://www.w3.org/2000/svg" width="21.662" height="20.78" viewBox="0 0 21.662 20.78">
  <path id="Path_60" data-name="Path 60" d="M351.549,272.05l1.943,3.936a1.813,1.813,0,0,0,1.365.992l4.344.631a1.813,1.813,0,0,1,1,3.092l-3.143,3.064a1.813,1.813,0,0,0-.521,1.6l.742,4.326a1.813,1.813,0,0,1-2.63,1.911l-3.885-2.043a1.813,1.813,0,0,0-1.687,0l-3.885,2.043a1.813,1.813,0,0,1-2.63-1.911l.742-4.326a1.813,1.813,0,0,0-.522-1.6l-3.143-3.064a1.813,1.813,0,0,1,1-3.092l4.344-.631a1.814,1.814,0,0,0,1.365-.992l1.943-3.936A1.813,1.813,0,0,1,351.549,272.05Z" transform="translate(-339.093 -271.04)" fill="#ff437d"/>
</svg>
