<svg xmlns="http://www.w3.org/2000/svg" width="144.4" height="44.833" viewBox="0 0 144.4 44.833">
  <g id="roku" transform="translate(-137.5 -283.511)">
    <path id="Path_1" data-name="Path 1" d="M160.243,298.253a7.373,7.373,0,0,0-7.336-7.406h-3.638v14.746h3.638a7.361,7.361,0,0,0,7.336-7.34m16.548,29.4H163.437l-10.6-14.713h-3.566v14.681H137.5V283.511h16.86c9.719,0,17.653,6.609,17.653,14.742,0,4.96-3.041,9.389-7.67,12.1l12.449,17.3" fill="#fcfcff"/>
    <path id="Path_2" data-name="Path 2" d="M394.316,353.308c-3.108,0-5.752,4.225-5.752,9.454s2.644,9.459,5.752,9.459c3.18,0,5.82-4.23,5.82-9.459s-2.639-9.454-5.82-9.454m18.115,9.454a18.084,18.084,0,1,1-18.115-17.987,18.027,18.027,0,0,1,18.115,17.987m27.618-17.256-13.557,13.555v-13.6H414.725v34.564h11.767V366.005l14.154,14.021h14.81l-17.986-17.988,14.9-14.892v20.512c0,6.81,4.1,13.1,14.409,13.1a16.352,16.352,0,0,0,11.573-5.29l5.291,4.563h2.512V345.507H474.385v22.349a6.592,6.592,0,0,1-6.025,3.767c-2.9,0-4.223-1.716-4.223-7.206v-18.91Z" transform="translate(-204.252 -52.409)" fill="#fcfcff"/>
  </g>
</svg>
