<svg xmlns="http://www.w3.org/2000/svg" width="28" height="28" viewBox="0 0 28 28">
  <g id="settings-bold" transform="translate(0 0)">
    <path id="Path_52" data-name="Path 52" d="M14.879,28H13.121a2.581,2.581,0,0,1-2.578-2.578v-.595A11.3,11.3,0,0,1,8.788,24.1l-.421.421a2.578,2.578,0,0,1-3.646,0L3.479,23.278a2.577,2.577,0,0,1,0-3.646l.421-.421a11.3,11.3,0,0,1-.729-1.755H2.578A2.581,2.581,0,0,1,0,14.879V13.121a2.581,2.581,0,0,1,2.578-2.578h.594A11.307,11.307,0,0,1,3.9,8.788l-.421-.421a2.578,2.578,0,0,1,0-3.646L4.722,3.479a2.577,2.577,0,0,1,3.646,0l.421.421a11.314,11.314,0,0,1,1.755-.729V2.578A2.581,2.581,0,0,1,13.121,0h1.757a2.581,2.581,0,0,1,2.578,2.578v.595a11.3,11.3,0,0,1,1.755.729l.421-.421a2.578,2.578,0,0,1,3.646,0l1.242,1.242a2.577,2.577,0,0,1,0,3.646l-.421.421a11.3,11.3,0,0,1,.729,1.755h.594A2.581,2.581,0,0,1,28,13.121v1.757a2.581,2.581,0,0,1-2.578,2.578h-.594a11.307,11.307,0,0,1-.729,1.755l.421.421a2.578,2.578,0,0,1,0,3.646l-1.242,1.242a2.577,2.577,0,0,1-3.646,0l-.421-.421a11.315,11.315,0,0,1-1.755.729v.595A2.581,2.581,0,0,1,14.879,28ZM9.063,22.377a9.669,9.669,0,0,0,2.506,1.04.82.82,0,0,1,.615.794v1.211a.938.938,0,0,0,.937.937h1.757a.938.938,0,0,0,.937-.937V24.211a.82.82,0,0,1,.615-.794,9.669,9.669,0,0,0,2.506-1.04.82.82,0,0,1,1,.126l.858.858a.937.937,0,0,0,1.325,0l1.243-1.243a.937.937,0,0,0,0-1.325l-.858-.858a.82.82,0,0,1-.126-1,9.668,9.668,0,0,0,1.04-2.506.82.82,0,0,1,.794-.615h1.211a.938.938,0,0,0,.937-.937V13.121a.938.938,0,0,0-.937-.937H24.211a.82.82,0,0,1-.794-.615,9.67,9.67,0,0,0-1.04-2.506.82.82,0,0,1,.126-1l.858-.858a.937.937,0,0,0,0-1.325L22.118,4.64a.937.937,0,0,0-1.325,0l-.858.858a.82.82,0,0,1-1,.126,9.669,9.669,0,0,0-2.506-1.04.82.82,0,0,1-.615-.794V2.578a.938.938,0,0,0-.937-.937H13.121a.938.938,0,0,0-.937.937V3.789a.82.82,0,0,1-.615.794,9.669,9.669,0,0,0-2.506,1.04.82.82,0,0,1-1-.126l-.858-.858a.937.937,0,0,0-1.325,0L4.639,5.882a.937.937,0,0,0,0,1.325l.858.858a.82.82,0,0,1,.126,1,9.668,9.668,0,0,0-1.04,2.506.82.82,0,0,1-.794.615H2.578a.938.938,0,0,0-.937.937v1.757a.938.938,0,0,0,.937.937H3.789a.82.82,0,0,1,.794.615,9.67,9.67,0,0,0,1.04,2.506.82.82,0,0,1-.126,1l-.858.858a.937.937,0,0,0,0,1.325L5.882,23.36a.937.937,0,0,0,1.325,0l.858-.858a.824.824,0,0,1,1-.126Z" transform="translate(0 0)" fill="#fff"/>
    <path id="Path_53" data-name="Path 53" d="M150.692,156.784a6.092,6.092,0,1,1,6.092-6.092A6.1,6.1,0,0,1,150.692,156.784Zm0-10.544a4.452,4.452,0,1,0,4.452,4.452A4.457,4.457,0,0,0,150.692,146.241Z" transform="translate(-136.692 -136.692)" fill="#fff"/>
  </g>
</svg>
